<svg xmlns="http://www.w3.org/2000/svg" xml:space="preserve" width="64" height="64" fill="#b8cbd9"><path d="M57 50H7a1 1 0 0 1-1-1V38a1 1 0 0 1 1-1h50a1 1 0 0 1 1 1v11a1 1 0 0 1-1 1zM8 48h48v-9H8v9z"/><path d="M32 44a1 1 0 0 1-1-1v-4a1 1 0 1 1 2 0v4a1 1 0 0 1-1 1zM52 44a1 1 0 0 1-1-1v-4a1 1 0 1 1 2 0v4a1 1 0 0 1-1 1zM47 42.333a1 1 0 0 1-1-1v-2.5a1 1 0 1 1 2 0v2.5a1 1 0 0 1-1 1zM42 42.333a1 1 0 0 1-1-1v-2.5a1 1 0 1 1 2 0v2.5a1 1 0 0 1-1 1zM37 42.333a1 1 0 0 1-1-1v-2.5a1 1 0 1 1 2 0v2.5a1 1 0 0 1-1 1zM27 42.333a1 1 0 0 1-1-1v-2.5a1 1 0 1 1 2 0v2.5a1 1 0 0 1-1 1zM22 42.333a1 1 0 0 1-1-1v-2.5a1 1 0 1 1 2 0v2.5a1 1 0 0 1-1 1zM17 42.333a1 1 0 0 1-1-1v-2.5a1 1 0 1 1 2 0v2.5a1 1 0 0 1-1 1zM12 44a1 1 0 0 1-1-1v-4a1 1 0 1 1 2 0v4a1 1 0 0 1-1 1zM53 35a.996.996 0 0 1-.781-.375l-4.57-5.713a1 1 0 0 1 1.561-1.25l4.57 5.713A1 1 0 0 1 53 35zM34.999 28a.999.999 0 0 1-.799-1.599l6-8a.996.996 0 0 1 .784-.4c.298 0 .604.134.797.376l1.409 1.762a1 1 0 1 1-1.563 1.248l-.602-.753L35.8 27.6a.998.998 0 0 1-.801.4z"/><path d="M39.001 34a.996.996 0 0 1-.815-.42l-12.72-17.861-12.653 17.624a1 1 0 1 1-1.625-1.167l13.469-18.76a.998.998 0 0 1 .812-.416h.002c.323.001.625.157.813.42l13.531 19a1.002 1.002 0 0 1-.814 1.58z"/><path d="M25.5 25h-.007a.999.999 0 0 1-.816-.433l-3.446-5a1 1 0 0 1 1.647-1.135l2.636 3.823 2.726-3.835a1 1 0 1 1 1.63 1.159l-3.554 5A1 1 0 0 1 25.5 25zM46 29c-2.757 0-5-2.243-5-5s2.243-5 5-5 5 2.243 5 5-2.243 5-5 5zm0-8c-1.654 0-3 1.346-3 3s1.346 3 3 3 3-1.346 3-3-1.346-3-3-3z"/><path d="M46.001 33.573a1 1 0 0 1-1-1V24a1 1 0 1 1 2 0v8.573a1 1 0 0 1-1 1z"/><path d="M57 36c-4.285 0-6.461-.522-8.566-1.027-2.083-.5-4.051-.973-8.099-.973-4.049 0-6.017.473-8.101.973-2.105.505-4.281 1.027-8.567 1.027s-6.462-.522-8.567-1.027C13.017 34.473 11.049 34 7 34a1 1 0 1 1 0-2c4.285 0 6.462.522 8.567 1.027 2.083.5 4.052.973 8.1.973s6.017-.473 8.1-.973C33.873 32.522 36.05 32 40.335 32c4.285 0 6.461.522 8.566 1.027 2.083.5 4.051.973 8.099.973a1 1 0 1 1 0 2z"/></svg>