<svg xmlns="http://www.w3.org/2000/svg" xml:space="preserve" width="64" height="64" fill="#b8cbd9"><path d="M31 44c-.153 0-.307-.035-.447-.105l-24-12a1 1 0 0 1 .895-1.789L31 41.882l5.469-2.734a1 1 0 0 1 .895 1.789l-5.916 2.958c-.141.07-.295.105-.448.105zM47.651 35.675a1 1 0 0 1-.449-1.895l7.35-3.675a1 1 0 0 1 .895 1.789l-7.35 3.675a.99.99 0 0 1-.446.106z"/><path d="M31 49c-.153 0-.307-.035-.447-.105l-24-12a1 1 0 0 1 .895-1.789L31 46.882l7.554-3.776a1 1 0 0 1 .895 1.789l-8.001 4c-.141.07-.295.105-.448.105zM49.301 39.851a1 1 0 0 1-.449-1.895l5.7-2.851a1 1 0 0 1 .895 1.789l-5.7 2.851a1.004 1.004 0 0 1-.446.106zM31 39c-.153 0-.307-.035-.447-.105l-24-11.998a1.001 1.001 0 0 1 0-1.79l24-12.002a1 1 0 0 1 .895 0l24 12.002a1.002 1.002 0 0 1-.001 1.79l-12.316 6.157a1.001 1.001 0 0 1-.895-1.789l10.527-5.263L31 15.118 9.236 26.002 31 36.882l3.75-1.874a1 1 0 0 1 .895 1.789l-4.197 2.098c-.142.07-.295.105-.448.105z"/><path d="M31 34a1 1 0 0 1-1-1c0-2.43 2.57-5 5-5a1 1 0 1 1 0 2c-1.346 0-3 1.654-3 3a1 1 0 0 1-1 1z"/><path d="M31 34a1 1 0 0 1-1-1c0-1.346-1.654-3-3-3a1 1 0 1 1 0-2c2.43 0 5 2.57 5 5a1 1 0 0 1-1 1z"/><path d="M31 34a1 1 0 0 1-1-1v-6a1 1 0 1 1 2 0v6a1 1 0 0 1-1 1zM31 24a1 1 0 0 1-1-1c0-2.43 2.57-5 5-5a1 1 0 1 1 0 2c-1.346 0-3 1.654-3 3a1 1 0 0 1-1 1z"/><path d="M31 24a1 1 0 0 1-1-1c0-1.346-1.654-3-3-3a1 1 0 1 1 0-2c2.43 0 5 2.57 5 5a1 1 0 0 1-1 1z"/><path d="M31 24a1 1 0 0 1-1-1v-6a1 1 0 1 1 2 0v6a1 1 0 0 1-1 1zM40 29a1 1 0 0 1-1-1c0-2.43 2.57-5 5-5a1 1 0 1 1 0 2c-1.346 0-3 1.654-3 3a1 1 0 0 1-1 1z"/><path d="M40 29a1 1 0 0 1-1-1c0-1.346-1.654-3-3-3a1 1 0 1 1 0-2c2.43 0 5 2.57 5 5a1 1 0 0 1-1 1z"/><path d="M40 29a1 1 0 0 1-1-1v-6a1 1 0 1 1 2 0v6a1 1 0 0 1-1 1zM22 29a1 1 0 0 1-1-1c0-2.43 2.57-5 5-5a1 1 0 1 1 0 2c-1.346 0-3 1.654-3 3a1 1 0 0 1-1 1z"/><path d="M22 29a1 1 0 0 1-1-1c0-1.346-1.654-3-3-3a1 1 0 1 1 0-2c2.43 0 5 2.57 5 5a1 1 0 0 1-1 1z"/><path d="M22 29a1 1 0 0 1-1-1v-6a1 1 0 1 1 2 0v6a1 1 0 0 1-1 1zM31 54c-.153 0-.307-.035-.447-.105l-24-12a1 1 0 0 1 .895-1.789L31 51.882l13.687-6.843a1.001 1.001 0 0 1 .895 1.789l-14.134 7.066A.997.997 0 0 1 31 54zM50.501 44.249a1 1 0 0 1-.449-1.895l4.5-2.249a1.001 1.001 0 0 1 .895 1.789l-4.5 2.249a.99.99 0 0 1-.446.106zM42 43a.998.998 0 0 1-.919-.607l-3-7a1 1 0 0 1 1.313-1.313l7 3a1 1 0 0 1 .313 1.625l-4 4A.994.994 0 0 1 42 43zm-1.096-6.096 1.434 3.344 1.911-1.911-3.345-1.433z"/><path d="M47 44a.997.997 0 0 1-.707-.293l-2.828-2.829a.999.999 0 1 1 1.414-1.414l2.828 2.829A.999.999 0 0 1 47 44z"/></svg>