<svg xmlns="http://www.w3.org/2000/svg" xml:space="preserve" width="64" height="64"><path fill="none" d="M51 26h-3a1.001 1.001 0 0 0 0 2h3a1.001 1.001 0 0 0 0-2zM47 35h-4a1.001 1.001 0 0 0 0 2h4a1.001 1.001 0 0 0 0-2zM18 37h4a1.001 1.001 0 0 0 0-2h-4a1.001 1.001 0 0 0 0 2z"/><path fill="none" d="M47 30H18c-1.545 0-3 2.253-3 4v2c0-1.654 1.346-3 3-3h4c1.654 0 3 1.346 3 3s-1.346 3-3 3h-4c-1.654 0-3-1.346-3-3v3c0 1.664.337 2 2 2h31c1.663 0 2-.336 2-2v-3c0 1.654-1.346 3-3 3h-4c-1.654 0-3-1.346-3-3s1.346-3 3-3h4c1.654 0 3 1.346 3 3v-2c0-1.747-1.455-4-3-4zm-8 6.5c0 1.995-1.075 3.5-2.5 3.5h-8c-1.425 0-2.5-1.505-2.5-3.5V36a1 1 0 0 1 1-1h11a1 1 0 0 1 1 1v.5zM44 43v2c0 .551.448 1 1 1h3c.552 0 1-.449 1-1v-2h-5zM40.754 21h-1.34l-3.707 3.707a.997.997 0 0 1-1.414 0 .999.999 0 0 1 0-1.414L36.586 21h-2.241c-.042.071-.076.146-.138.207l-5.5 5.5a.997.997 0 0 1-1.414 0 .999.999 0 0 1 0-1.414L31.586 21h-7.34c-.725.707-2.608 4.007-4.126 7h24.76c-1.519-2.993-3.401-6.293-4.126-7zM16 43v2c0 .551.448 1 1 1h3c.552 0 1-.449 1-1v-2h-5zM17 27c0-.551-.448-1-1-1h-3a1.001 1.001 0 0 0 0 2h3c.552 0 1-.449 1-1z"/><path fill="none" d="M28.521 38.003 36.486 38c.118-.052.375-.404.474-1h-8.92c.101.608.366.962.481 1.003z"/><path d="M38 35H27a1 1 0 0 0-1 1v.5c0 1.995 1.075 3.5 2.5 3.5h8c1.425 0 2.5-1.505 2.5-3.5V36a1 1 0 0 0-1-1zm-1.514 3-7.966.003c-.114-.041-.38-.395-.48-1.003h8.92c-.099.596-.356.948-.474 1z"/><path d="M51 24h-3c-.952 0-1.793.455-2.343 1.149C42.41 19.02 41.506 19 41 19H24c-.531 0-1.494.003-5.154 7.096A2.995 2.995 0 0 0 16 24h-3c-1.654 0-3 1.346-3 3s1.346 3 3 3h1.415C13.535 31.148 13 32.628 13 34v5c0 1.407.323 2.413 1 3.066V45c0 1.654 1.346 3 3 3h3c1.654 0 3-1.346 3-3v-2h19v2c0 1.654 1.346 3 3 3h3c1.654 0 3-1.346 3-3v-2.934c.677-.653 1-1.66 1-3.066v-5c0-1.372-.535-2.852-1.415-4H51c1.654 0 3-1.346 3-3s-1.346-3-3-3zm-26.754-3h7.34l-4.293 4.293a.999.999 0 1 0 1.414 1.414l5.5-5.5c.062-.061.096-.136.138-.207h2.241l-2.293 2.293a.999.999 0 1 0 1.414 1.414L39.414 21h1.34c.725.707 2.607 4.007 4.126 7H20.12c1.518-2.993 3.401-6.293 4.126-7zM13 28a1.001 1.001 0 0 1 0-2h3a1.001 1.001 0 0 1 0 2h-3zm8 17c0 .551-.448 1-1 1h-3c-.552 0-1-.449-1-1v-2h5v2zm28 0c0 .551-.448 1-1 1h-3c-.552 0-1-.449-1-1v-2h5v2zm1-9v3c0 1.664-.337 2-2 2H17c-1.663 0-2-.336-2-2v-5c0-1.747 1.455-4 3-4h29c1.545 0 3 2.253 3 4v2zm1-8h-3a1.001 1.001 0 0 1 0-2h3a1.001 1.001 0 0 1 0 2z"/><path d="M47 33h-4c-1.654 0-3 1.346-3 3s1.346 3 3 3h4c1.654 0 3-1.346 3-3s-1.346-3-3-3zm0 4h-4a1.001 1.001 0 0 1 0-2h4a1.001 1.001 0 0 1 0 2zM18 39h4c1.654 0 3-1.346 3-3s-1.346-3-3-3h-4c-1.654 0-3 1.346-3 3s1.346 3 3 3zm0-4h4a1.001 1.001 0 0 1 0 2h-4a1.001 1.001 0 0 1 0-2z"/></svg>