<svg xmlns="http://www.w3.org/2000/svg" xml:space="preserve" width="64" height="64" fill="#b8cbd9"><path d="M31 50c-8.822 0-16-7.178-16-16 0-6.571 4.119-12.573 10.25-14.935a1 1 0 1 1 .719 1.866C20.604 22.999 17 28.25 17 34c0 7.72 6.28 14 14 14s14-6.28 14-14-6.28-14-14-14a1 1 0 1 1 0-2c8.822 0 16 7.178 16 16s-7.178 16-16 16z"/><path d="M29.219 21.332c-1.629 0-3.888-.316-5.396-1.824-2.48-2.481-1.722-7.034-1.688-7.227a1 1 0 0 1 .814-.814c.031-.005.789-.135 1.829-.135 1.63 0 3.89.317 5.397 1.825 2.48 2.481 1.723 7.033 1.689 7.226a1 1 0 0 1-.813.814c-.031.005-.79.135-1.832.135zm-5.193-7.974c-.082 1.175-.056 3.469 1.211 4.736 1.253 1.252 3.549 1.292 4.736 1.211.082-1.174.055-3.468-1.212-4.735-1.251-1.251-3.545-1.295-4.735-1.212zM35 30.889a1 1 0 0 1-1-1v-1a1 1 0 1 1 2 0v1a1 1 0 0 1-1 1zM39 29.889a1 1 0 0 1-1-1v-1a1 1 0 1 1 2 0v1a1 1 0 0 1-1 1zM40 35a1 1 0 0 1-1-1v-1a1 1 0 1 1 2 0v1a1 1 0 0 1-1 1z"/><path d="M31 25.332a1 1 0 0 1-1-1v-4a1 1 0 1 1 2 0v4a1 1 0 0 1-1 1z"/><path d="M31 26.332c-2.243 0-4-1.318-4-3a1 1 0 1 1 2 0c0 .408.779 1 2 1s2-.592 2-1a1 1 0 1 1 2 0c0 1.682-1.757 3-4 3z"/></svg>