<svg xmlns="http://www.w3.org/2000/svg" xml:space="preserve" width="64" height="64" fill="#b8cbd9"><path d="M47 53H19a1 1 0 0 1-1-1V13a1 1 0 0 1 1-1h28a1 1 0 0 1 1 1v39a1 1 0 0 1-1 1zm-27-2h26V14H20v37z"/><path d="M47 34c-6.477 0-11-8.636-11-21a1 1 0 1 1 2 0c0 10.832 3.869 19 9 19a1 1 0 1 1 0 2z"/><path d="M40.001 53a1 1 0 0 1-.979-1.206l4-19a1 1 0 1 1 1.957.413l-4 19a1 1 0 0 1-.978.793zM19 34a1 1 0 1 1 0-2c5.131 0 9-8.168 9-19a1 1 0 1 1 2 0c0 12.364-4.523 21-11 21z"/><path d="M25.999 53c-.463 0-.878-.323-.978-.794l-4-19a1 1 0 0 1 1.957-.413l4 19A1 1 0 0 1 25.999 53zM33 53a1 1 0 0 1-1-1V13a1 1 0 1 1 2 0v39a1 1 0 0 1-1 1z"/><path d="M47 28H19a1 1 0 1 1 0-2h28a1 1 0 1 1 0 2z"/></svg>