<svg xmlns="http://www.w3.org/2000/svg" width="1200" height="1088" version="1.0" viewBox="0 0 900 816">
  <path d="M261.3 42.1c-5 3.2-7.3 7.7-7.3 14.4 0 6.9 2.8 11.3 9 14.5 5 2.5 8.4 2.5 13.9-.3 6.6-3.3 8.6-6.5 8.6-14.2 0-7.1-1.7-10.3-7.5-14.3-4.4-2.9-12.2-3-16.7-.1zM733.3 87.8c-4.8.5-11 7.1-11.8 12.7-1.3 8.6 1.8 14.5 9.7 18.6 4.8 2.5 7.1 2.4 12.6-.4 9.8-4.8 13-14.9 7.6-23.4-4.1-6.2-9.5-8.5-18.1-7.5zM136 120.4c-11.1 2.9-18.1 6-25.6 11.2-11.2 7.9-21.2 21.3-25.7 34.6-2.2 6.2-2.2 7.4-2.2 69.8 0 63.2 0 63.5 2.3 70.4 5.4 16.5 19.5 32.4 35.6 40.2 16.3 7.9-3.3 7.4 273.7 7.4 275.9 0 257 .5 272.6-7 19.9-9.7 33.6-27.7 38.7-51 1.2-5.6 1.6-12.8 1.6-28.2 0-11.3.3-21.3.6-22.2.5-1.3 2.3-1.6 9.8-1.6 16 0 25 4.4 31 15l3.1 5.5v145l-2.8 5.7c-2.6 5.4-6.8 9.6-12.7 12.9-2.1 1.2-29.8 1.5-173.5 1.9l-171 .5-4.4 2.5c-8.6 4.9-8.6 4.8-8.9 33.3-.2 15.3-.7 25.6-1.3 26.4-.8.9-7.6 1.3-25.7 1.5-27.5.3-28.3.5-33.6 7.1l-3.1 3.9-.3 84.5c-.1 50.7.1 86.5.7 89.2 1.7 8 3.2 13.5 4 14.6.5.5 1.1 2.1 1.4 3.5 1.3 5.1 9.9 18.1 16.4 24.8 18.9 19.3 46.1 28 71.2 22.7 15.9-3.3 25.3-7.9 36.9-17.8 13.1-11.3 21.8-25.7 25.6-42.5 1.4-6.2 1.6-17.7 1.6-92.7 0-76.7-.2-85.9-1.6-88.7-4.7-9.1-7.2-9.8-36.2-9.8-17.2 0-24.1-.3-25-1.2-1.5-1.5-1.7-25.5-.2-27.8.8-1.3 20.1-1.5 162.2-1.7 177.4-.3 164.2.1 178.7-6.4 8.4-3.8 21.5-16.8 25.5-25.3 6.9-14.5 6.5-9.2 6.6-94.2.1-85.5.6-79.2-6.6-93.9-3.6-7.3-15.3-19.3-22-22.5-12.3-6-16.6-7-32.9-7.8l-13-.7-.6-16c-.6-16.7-1.4-21.5-5.6-32.8-6.3-17-22.2-32.8-39.3-39.1-16.5-6 2.7-5.6-269.1-5.5l-248.4.1-8.5 2.2zm502 29.7c13.4 2.1 23.2 9.4 29.3 21.8l3.2 6.6.5 52.1c.4 42.3.8 52.4 1.9 53.8 1.9 2.2.8 9.2-2.4 16-3.3 6.9-11.7 14.9-19.8 18.7l-6.3 2.9-251.5-.2-251.4-.3-6-3c-7.6-3.8-16-12.2-19.4-19.4l-2.6-5.6-.3-31.1c-.3-25.8-.1-31.3 1.1-32.2 1.1-.9 14.8-1.2 53.8-1l52.4.3.7 11c1.7 27.1 11.5 41 35.5 50.4 2.1.8 7 1.2 14.5.9 10.8-.3 11.7-.5 19.2-4.2 12.4-6 20-14.9 24.5-28.3 1.9-5.5 2.1-8.6 2.1-27.8 0-19.7-.2-21.9-2-25.5-2.2-4.3-4.4-6.1-10.1-8.1-4.7-1.6-11.6.2-15.3 4-5 5.2-5.6 8.5-5.6 28.9 0 18-.1 19.1-2.2 22.2-6.1 8.9-19.9 9.3-26.2.7-1.9-2.6-2.1-4.7-2.7-23.5-.3-11.4-.9-21.6-1.4-22.7-1.7-3.6-5-6.7-9.3-8.6-4.1-1.8-7.9-1.9-66-1.9-34 0-62.3-.4-63.1-.9-2.3-1.5-.9-16.6 2.1-23.3 3.2-6.9 11.6-15.4 18.7-18.7l5.6-2.6 210.9-.3c155.8-.2 211.2.1 212.2.9 1.2.9 1.4 9.6 1.4 47.4v46.2l-2.3 4.4c-3.1 5.8-7.7 8.9-13.4 8.9-6.4 0-11.7-3.1-14.2-8.3-2-4.1-2.1-5.9-2.1-30.8 0-25.5-.1-26.6-2.2-30.9-4.7-9.1-8.7-10-44.7-10-36.3 0-41.7 1.1-46.7 9.3-1.6 2.8-2 5.8-2.4 23.7-.6 22.8-1.1 25.1-7.2 28.7-5.2 3.1-8.3 3.5-12.7 1.7-4.5-1.8-9.8-7.2-10.5-10.7-.3-1.2-.7-7.4-.8-13.7-.4-12.7-1.5-15.9-7.2-20.2-2.5-1.9-4.4-2.3-9.9-2.3-6.7 0-6.9.1-10.7 4.1-4.7 5-6 9.5-6 19.9.1 25.5 9.5 42.1 28.7 51.3 7.6 3.6 8 3.7 19.8 3.7 12 0 12 0 20-4 13.9-6.8 23.8-19.3 26.5-33.4.5-3 1-9.6 1-14.7 0-8.2.2-9.5 1.9-10.4 1.1-.5 7.6-1 14.5-1 11.4 0 12.6.2 13.6 1.9.6 1.2 1 9.4 1 19.8 0 14.6.4 18.9 1.9 24.1 2.7 8.7 6.1 14.1 12.8 20.2 13.8 12.6 32.6 16.1 50.6 9.3 12.3-4.6 20.7-13.1 26.3-26.6l2.9-7.2.5-50.8c.4-43.7.7-50.9 2-51.7 2-1.3 34.9-1.2 43 .1zM437.8 525.8c1 .7 1.3 16 1.3 75.3.1 79.7.2 77.5-4.8 87.2-4.6 9-17.6 19.7-27.3 22.5-6.1 1.8-14.3 2.3-21.1 1.3-16.3-2.3-30.6-14.4-37.3-31.6-1.9-4.8-2-8.5-2.4-78.8-.2-56 0-74.2.9-75.3 1-1.2 8.2-1.4 45.3-1.4 24.2 0 44.7.4 45.4.8z"/>
  <path d="M388.4 635c-10.3 2.1-17.3 7.4-21.9 16.7-2.6 4.9-3 6.9-3 13.8 0 7.1.4 8.8 3.3 14.7 3.8 7.9 8.2 11.8 16.2 14.7 15.8 5.8 31.4-.2 39.6-15.2 2.4-4.4 2.7-6.2 2.8-13.6 0-10.6-2.1-15.9-9.1-22.9-6.9-6.9-18.2-10.2-27.9-8.2zM260.6 402c-4.3 2.7-6.5 7.6-6.6 14 0 8.7 5.2 15 13.7 16.6 5.2 1 13.7-3.4 16.2-8.5 4-7.8 1.6-17.7-5.2-22-4.6-2.8-14-2.9-18.1-.1zM147.6 494.7c-6.3 1.7-15.4 6.6-19.8 10.8-5 4.6-11 13.6-13 19.4-3 8.2-3 23.3.1 32.1 3.6 10.5 13 21 24.1 26.9 6.3 3.3 16.9 5.4 24 4.7 8.8-.8 13.4-2.4 21.4-7.1 8.2-4.8 13.6-10.6 18.4-20l3.7-7v-27l-3.8-7.5c-10.8-20.9-33-31.1-55.1-25.3zm18.5 30.7c4.2 1.8 6.4 4 8.4 9 5.5 13-10.9 26.2-22.6 18.3-7.7-5.2-9.8-12.8-5.6-20.2 4.3-7.6 12-10.4 19.8-7.1zM620 495.2c-3.3 1.7-5.1 3.5-6.7 6.8-2.8 5.4-2.9 9.2-.4 14.6 5.4 11.8 22.7 12.6 29 1.4 8.1-14.4-7.2-30.4-21.9-22.8zM670.5 574.9c-10.4 3.5-13.1 5.1-20.4 11.1-12.7 10.5-20 24.1-22.1 41.2-3 23.1 7.4 46.2 26.7 59.5 10.8 7.3 23.2 10.7 37.3 10 17.3-.8 28.8-5.3 40.7-16.1 13-11.7 19.7-27.5 19.7-46.1 0-19.2-6.9-34.8-20.6-46.9-7.1-6.3-12.1-9.2-22-12.7-7.4-2.6-9.5-2.9-19.8-2.9-9.9.1-12.6.5-19.5 2.9zm29.7 30.8c14.9 5.7 22.9 19.9 19.8 34.9-1.5 7.4-2.2 8.6-7.9 14.7-7.1 7.7-10.8 9.2-22.1 9.2-8 0-10.2-.4-13.9-2.3-12.8-6.9-19.3-21.2-15.7-35 2.7-10.5 8.5-17.1 19-21.4 5.3-2.2 15.4-2.3 20.8-.1zM184.4 650.9c-5.7 2.6-8.7 7.2-9.2 14-.4 6.5 1.9 10.9 7.7 14.8 6.7 4.5 17.2 2.1 22-5.1 2-3.1 2.3-4.5 1.9-10.1-.5-7.4-2.6-10.5-9.3-13.6-5-2.3-7.9-2.3-13.1 0zM545.4 650.3c-4.9 1.9-8.3 5.1-10.5 10.2-2 4.6-2 4.9-.4 9.4 3.2 8.4 8.2 12.1 16.4 12.1 4.1 0 5.7-.6 9.3-3.3 10.2-7.8 8.3-22.4-3.7-27.8-4.6-2.1-6.8-2.3-11.1-.6z"/>
</svg>
