<svg xmlns="http://www.w3.org/2000/svg" xml:space="preserve" width="64" height="64" fill="#b8cbd9">
  <path d="M35 30h-4a1 1 0 0 1-1-1v-7a1 1 0 0 1 1-1h4a1 1 0 0 1 1 1v7a1 1 0 0 1-1 1zm-3-2h2v-5h-2v5zM48 56H17a1 1 0 0 1-1-1v-8a1 1 0 0 1 1-1h31a1 1 0 0 1 1 1v8a1 1 0 0 1-1 1zm-30-2h29v-6H18v6zM40.52 42H25.5a1 1 0 0 1-.945-1.327l2.764-8a1 1 0 0 1 .945-.673h9.471a1 1 0 0 1 .945.673l2.704 7.822A1 1 0 0 1 40.52 42zm-13.617-2h12.193l-2.074-6h-8.046l-2.073 6z"/>
  <path d="M39 34H27c-1.654 0-3-1.346-3-3s1.346-3 3-3h12c1.654 0 3 1.346 3 3s-1.346 3-3 3zm-12-4c-.551 0-1 .449-1 1s.449 1 1 1h12a1.001 1.001 0 0 0 0-2H27zM48 48H17c-2.206 0-4-1.794-4-4s1.794-4 4-4h31c2.206 0 4 1.794 4 4s-1.794 4-4 4zm-31-6c-1.103 0-2 .897-2 2s.897 2 2 2h31c1.103 0 2-.897 2-2s-.897-2-2-2H17zM46 25a1 1 0 0 1-1-1v-6.396C45 14.514 42.532 12 39.5 12S34 14.514 34 17.604a1 1 0 0 1-2 0C32 13.411 35.364 10 39.5 10s7.5 3.411 7.5 7.604V24a1 1 0 0 1-1 1zM46 34a1 1 0 0 1-1-1v-4.376a1 1 0 1 1 2 0V33a1 1 0 0 1-1 1zM46 39a1 1 0 0 1-1-1v-1a1 1 0 1 1 2 0v1a1 1 0 0 1-1 1z"/>
  <path d="M20.05 25a1 1 0 0 1-1-1v-6.396c0-4.192 3.353-7.604 7.474-7.604 4.065 0 7.383 3.317 7.474 7.43.002.021.002.042.002.063v.111a1 1 0 0 1-2 0C32 14.514 29.543 12 26.524 12s-5.474 2.514-5.474 5.604V24a1 1 0 0 1-1 1zM20 34a1 1 0 0 1-1-1v-4.376a1 1 0 0 1 2 0V33a1 1 0 0 1-1 1zM20 39a1 1 0 0 1-1-1v-1a1 1 0 0 1 2 0v1a1 1 0 0 1-1 1zM37 23h-8a1 1 0 0 1 0-2h8a1 1 0 1 1 0 2z"/>
</svg>
