<svg xmlns="http://www.w3.org/2000/svg" xml:space="preserve" style="enable-background:new 0 0 64 64" viewBox="0 0 64 64"><path d="M32.5 52C24 52 17 45 17 36.5c0-1.7.3-3.3.8-4.8-2.4.2-4.7-.6-6.4-2.3-1.7-1.7-2.5-4-2.3-6.5.2-2.5 1.3-4.8 3.2-6.7 3.9-3.9 9.8-4.3 13.2-.9 1.7 1.7 2.5 4 2.3 6.5 2.9-.9 6-1 8.9-.1-.5-2.8.3-5.5 2.2-7.3 3.4-3.4 9.3-3 13.2.9 3.9 3.9 4.3 9.8.9 13.2-1.6 1.6-3.8 2.4-6.2 2.3.7 1.8 1.1 3.8 1.1 5.8C48 45 41 52 32.5 52zM19.4 29.4c.3 0 .6.1.8.4.2.3.3.7.1 1.1-.8 1.8-1.3 3.7-1.3 5.7C19 43.9 25.1 50 32.5 50S46 43.9 46 36.5c0-2.3-.6-4.6-1.7-6.6-.2-.3-.2-.8.1-1.1.2-.3.7-.5 1-.4 2.4.6 4.7.1 6.3-1.4 2.6-2.6 2.2-7.3-.9-10.4-3.1-3.1-7.8-3.5-10.4-.9-1.7 1.7-2.2 4.5-1.2 7.2.1.4 0 .8-.2 1.1-.3.3-.7.4-1.1.2-3.5-1.5-7.4-1.5-10.9.1-.4.2-.8.1-1.1-.2-.3-.3-.4-.6-.3-1 .7-2.4.1-4.8-1.4-6.4-2.6-2.6-7.3-2.2-10.4.9-1.5 1.5-2.5 3.5-2.6 5.5-.2 1.9.4 3.7 1.6 4.9 1.5 1.5 3.9 2.1 6.3 1.4h.3z"/><path d="M35 40c-.6 0-1-.4-1-1v-5.2c0-.6.4-1 1-1s1 .4 1 1V39c0 .6-.4 1-1 1zM30 40c-.6 0-1-.4-1-1v-5.2c0-.6.4-1 1-1s1 .4 1 1V39c0 .6-.4 1-1 1z"/><path d="M19 42.4c-.6 0-1-.4-1-1 0-2.1 1.5-3.8 3.4-4.3.1-.1.3-.1.4-.1H23v-5.7c0-2.9 2.4-5.3 5.3-5.3s5.3 2.4 5.3 5.3c0 .6-.4 1-1 1s-1-.4-1-1c0-1.8-1.5-3.3-3.3-3.3S25 29.5 25 31.3V38c0 .6-.4 1-1 1h-1.6c-1.3 0-2.4 1.1-2.4 2.4 0 .5-.4 1-1 1z"/><path d="M46 42.4c-.6 0-1-.4-1-1 0-1.3-1.1-2.4-2.4-2.4H41c-.6 0-1-.4-1-1v-6.7c0-1.8-1.5-3.3-3.3-3.3s-3.3 1.5-3.3 3.3c0 .6-.4 1-1 1s-1-.4-1-1c0-2.9 2.4-5.3 5.3-5.3s5.3 2.4 5.3 5.3V37h.6c2.4 0 4.4 2 4.4 4.4 0 .5-.4 1-1 1zM33.5 46h-2c-1.4 0-2.5-1.1-2.5-2.5s1.1-2.5 2.5-2.5h2c1.4 0 2.5 1.1 2.5 2.5S34.9 46 33.5 46zm-2-3c-.3 0-.5.2-.5.5s.2.5.5.5h2c.3 0 .5-.2.5-.5s-.2-.5-.5-.5h-2z"/></svg>