<svg xmlns="http://www.w3.org/2000/svg" xml:space="preserve" width="64" height="64" fill="#b8cbd9"><path d="M48.312 57a1 1 0 0 1-.985-.835l-5.948-35.462H22.624l-5.952 35.463a1.001 1.001 0 0 1-1.973-.332l6.092-36.296a1 1 0 0 1 .986-.834h20.447a1 1 0 0 1 .986.834l6.088 36.297A1 1 0 0 1 48.312 57z"/><path d="M32 57a1 1 0 0 1-1-1v-8a1 1 0 1 1 2 0v8a1 1 0 0 1-1 1zM32 45a1 1 0 0 1-1-1v-5a1 1 0 0 1 2 0v5a1 1 0 0 1-1 1zM32 36a1 1 0 0 1-1-1v-4a1 1 0 0 1 2 0v4a1 1 0 0 1-1 1zM32 28.162a1 1 0 0 1-1-1v-2a1 1 0 0 1 2 0v2a1 1 0 0 1-1 1zM32 22.718a1 1 0 0 1-1-1v-1a1 1 0 0 1 2 0v1a1 1 0 0 1-1 1zM54 49a1 1 0 0 1-1-1V34a1 1 0 1 1 2 0v14a1 1 0 0 1-1 1z"/><path d="M54 43c-3.309 0-6-2.691-6-6v-6c0-3.309 2.691-6 6-6s6 2.691 6 6v6c0 3.309-2.691 6-6 6zm0-16c-2.206 0-4 1.794-4 4v6c0 2.206 1.794 4 4 4s4-1.794 4-4v-6c0-2.206-1.794-4-4-4zM10 49a1 1 0 0 1-1-1V34a1 1 0 0 1 2 0v14a1 1 0 0 1-1 1z"/><path d="M10 43c-3.309 0-6-2.691-6-6v-6c0-3.309 2.691-6 6-6s6 2.691 6 6v6c0 3.309-2.691 6-6 6zm0-16c-2.206 0-4 1.794-4 4v6c0 2.206 1.794 4 4 4s4-1.794 4-4v-6c0-2.206-1.794-4-4-4zM50 25a1 1 0 0 1-1-1V13a1 1 0 1 1 2 0v11a1 1 0 0 1-1 1z"/><path d="M50 21c-2.757 0-5-2.691-5-6v-3c0-3.309 2.243-6 5-6s5 2.691 5 6v3c0 3.309-2.243 6-5 6zm0-13c-1.626 0-3 1.832-3 4v3c0 2.168 1.374 4 3 4s3-1.832 3-4v-3c0-2.168-1.374-4-3-4zM15 25a1 1 0 0 1-1-1V13a1 1 0 0 1 2 0v11a1 1 0 0 1-1 1z"/><path d="M15 21c-2.757 0-5-2.691-5-6v-3c0-3.309 2.243-6 5-6s5 2.691 5 6v3c0 3.309-2.243 6-5 6zm0-13c-1.626 0-3 1.832-3 4v3c0 2.168 1.374 4 3 4s3-1.832 3-4v-3c0-2.168-1.374-4-3-4z"/><path d="M59.5 20.703h-55a1 1 0 0 1 0-2h55a1 1 0 1 1 0 2z"/></svg>