<svg xmlns="http://www.w3.org/2000/svg" xml:space="preserve" width="64" height="64"><path fill="none" d="M47.909 39.127 37.26 34.785a2.625 2.625 0 0 0-1.01-.193c.106.209.325.506.673.776l9.088 7.051a.784.784 0 0 0 .479.178c.25 0 .477-.144.621-.394l1.161-2.013a.755.755 0 0 0 .082-.622c-.066-.194-.224-.35-.445-.441zM31.572 29.856a2.618 2.618 0 0 0-2.616 2.614 2.618 2.618 0 0 0 2.616 2.613 2.614 2.614 0 0 0 0-5.227zM31.569 27.71c.128-.197.275-.535.335-.971l1.563-11.394a.746.746 0 0 0-.158-.606.75.75 0 0 0-.579-.24h-2.321a.75.75 0 0 0-.579.24.746.746 0 0 0-.158.606l1.563 11.394c.059.436.206.774.334.971zM25.878 34.785 15.23 39.127a.75.75 0 0 0-.445.44.755.755 0 0 0 .082.622l1.162 2.013c.24.415.724.51 1.101.216l9.086-7.051c.348-.27.566-.567.673-.776a2.526 2.526 0 0 0-1.011.194z"/><path d="M19.85 27.185a1 1 0 0 0 .907-.576c.185-.396.391-.786.612-1.159a1 1 0 0 0-1.721-1.02c-.254.429-.491.876-.704 1.332a1.002 1.002 0 0 0 .906 1.423zM44.022 25.936a1 1 0 0 0 1.715-1.031 15.002 15.002 0 0 0-1.313-1.85 1 1 0 0 0-1.539 1.277c.42.505.802 1.045 1.137 1.604zM24.353 29.284a1 1 0 0 0 .907-.578l.117-.24a1.001 1.001 0 0 0-1.782-.91 7.17 7.17 0 0 0-.148.306 1 1 0 0 0 .906 1.422zM39.914 27.531a.998.998 0 0 0 1.406.156 1 1 0 0 0 .156-1.405 10.667 10.667 0 0 0-.56-.644 1 1 0 0 0-1.455 1.372c.159.168.31.342.453.521zM14.929 24.992a1 1 0 0 0 1.328-.485c.414-.888.903-1.745 1.455-2.546a1 1 0 0 0-1.649-1.134 19.68 19.68 0 0 0-1.619 2.835 1.001 1.001 0 0 0 .485 1.33zM47.929 24.199a1 1 0 1 0 1.766-.941 19.519 19.519 0 0 0-1.545-2.442 1 1 0 1 0-1.605 1.192c.512.692.977 1.429 1.384 2.191z"/><path d="M51.264 27.161a.999.999 0 1 0-1.923.544c.438 1.551.66 3.153.66 4.761 0 1.742-.27 3.455-.78 5.114a2.862 2.862 0 0 0-.555-.304l-1.354-.552c.378-1.327.58-2.692.58-4.071 0-1.285-.166-2.567-.494-3.813a1 1 0 0 0-1.934.509c.284 1.08.428 2.192.428 3.305 0 1.12-.153 2.23-.441 3.312l-1.952-.796c.174-.762.284-1.538.284-2.322 0-.89-.114-1.779-.339-2.643a1.001 1.001 0 0 0-1.936.504c.182.699.274 1.419.274 2.139 0 .524-.066 1.042-.163 1.556l-3.604-1.47a4.492 4.492 0 0 0-1.674-.344c-.062 0-.113.014-.173.017.001-.046.014-.09.014-.136 0-1.85-1.1-3.438-2.673-4.172.184-.403.317-.843.378-1.287l1.563-11.394c.11-.806-.121-1.604-.634-2.192s-1.273-.926-2.087-.926h-2.321a2.85 2.85 0 0 0-.904.161 1.01 1.01 0 0 0-.426-.028A19.486 19.486 0 0 0 18.81 17.64a1.001 1.001 0 0 0 1.365 1.463 17.446 17.446 0 0 1 7.5-4.123c-.018.209-.016.423.014.638l.301 2.192a15.05 15.05 0 0 0-5.658 3.296 1.001 1.001 0 0 0 .679 1.734.997.997 0 0 0 .68-.267c1.314-1.219 2.885-2.135 4.578-2.727l.396 2.888c-.829.371-1.608.84-2.315 1.412a1 1 0 0 0 1.258 1.556 8.437 8.437 0 0 1 1.346-.871l.299 2.181c.062.444.194.886.379 1.289-1.574.735-2.675 2.322-2.675 4.171 0 .046.013.09.014.136-.059-.003-.111-.017-.172-.017-.544 0-1.123.119-1.676.345l-10.648 4.342a2.756 2.756 0 0 0-1.582 1.644 2.76 2.76 0 0 0 .242 2.27l1.162 2.013c.219.379.518.676.854.908.035.081.063.164.121.236a19.402 19.402 0 0 0 9.429 6.45 1 1 0 1 0 .596-1.909 17.388 17.388 0 0 1-7.409-4.598c.162-.083.32-.177.469-.292l1.237-.96c1.575 1.569 3.476 2.799 5.58 3.538a1 1 0 0 0 .662-1.887 12.968 12.968 0 0 1-4.651-2.886l1.66-1.289a10.48 10.48 0 0 0 4.146 2.273 1 1 0 0 0 .532-1.927 8.485 8.485 0 0 1-3.075-1.588l2.995-2.324a4.629 4.629 0 0 0 1.015-1.096 4.586 4.586 0 0 0 3.116 1.232 4.579 4.579 0 0 0 3.11-1.23 4.6 4.6 0 0 0 1.014 1.095l9.088 7.051a2.767 2.767 0 0 0 1.706.598c.97 0 1.85-.521 2.354-1.394l1.161-2.013c.224-.387.341-.812.368-1.238a.97.97 0 0 0 .278-.378A19.433 19.433 0 0 0 52 32.466a19.52 19.52 0 0 0-.736-5.305zm-25.049 8.206-9.086 7.051c-.377.294-.86.199-1.101-.216l-1.162-2.013a.755.755 0 0 1-.082-.622.752.752 0 0 1 .445-.44l10.648-4.342a2.53 2.53 0 0 1 1.01-.194 2.419 2.419 0 0 1-.672.776zm3.614-20.628a.75.75 0 0 1 .579-.24h2.321a.75.75 0 0 1 .579.24c.135.154.191.37.158.606l-1.563 11.394c-.06.436-.207.774-.335.971a2.46 2.46 0 0 1-.336-.971l-1.563-11.394a.756.756 0 0 1 .16-.606zm1.743 20.344a2.618 2.618 0 0 1-2.616-2.613 2.618 2.618 0 0 1 2.616-2.614 2.614 2.614 0 0 1 0 5.227zm16.7 5.106-1.161 2.013c-.145.25-.371.394-.621.394a.784.784 0 0 1-.479-.178l-9.088-7.051a2.448 2.448 0 0 1-.673-.776c.263-.011.664.053 1.01.193l10.649 4.343a.75.75 0 0 1 .445.44.747.747 0 0 1-.082.622z"/><path d="M28.415 46.354a1.001 1.001 0 0 0 .946 1.051 15.097 15.097 0 0 0 3.328-.193 1 1 0 0 0-.336-1.972c-.952.162-1.928.218-2.887.167a.99.99 0 0 0-1.051.947zM31.37 43.047c.28-.043.561-.098.839-.164a1 1 0 1 0-.465-1.946 7.883 7.883 0 0 1-.675.132 1 1 0 0 0 .301 1.978zM32.538 49.571c-.665.077-1.366.109-2.017.115-.502 0-1.013-.022-1.519-.067-.562-.051-1.035.359-1.084.909s.358 1.035.908 1.083c.564.05 1.134.075 1.693.075h.017c.743 0 1.494-.043 2.229-.127a1 1 0 0 0 .879-1.108.992.992 0 0 0-1.106-.88z"/></svg>