<svg xmlns="http://www.w3.org/2000/svg" xml:space="preserve" style="enable-background:new 0 0 64 64" viewBox="0 0 64 64"><path d="M53.1 29.4c-.3 0-.6-.1-.8-.4l-4.6-5.7c-.3-.4-.3-1.1.2-1.4.4-.3 1.1-.3 1.4.2l4.6 5.7c.3.4.3 1.1-.2 1.4-.2.2-.4.2-.6.2zM35.1 22.4c-.2 0-.4-.1-.6-.2-.4-.3-.5-1-.2-1.4l6-8c.2-.2.5-.4.8-.4.3 0 .6.1.8.4l1.4 1.8c.3.4.3 1.1-.2 1.4-.4.3-1.1.3-1.4-.2l-.6-.8-5.2 7c-.2.3-.5.4-.8.4z"/><path d="M39.1 28.4c-.3 0-.6-.1-.8-.4L25.5 10.1 12.9 27.8c-.3.4-.9.6-1.4.2-.4-.3-.6-.9-.2-1.4L24.7 7.8c.2-.3.5-.4.8-.4.3 0 .6.2.8.4l13.5 19c.3.4.2 1.1-.2 1.4-.1.2-.3.2-.5.2z"/><path d="M25.6 19.4s-.1 0 0 0c-.3 0-.6-.2-.8-.4l-3.4-5c-.3-.5-.2-1.1.3-1.4.5-.3 1.1-.2 1.4.3l2.6 3.8 2.7-3.8c.3-.4.9-.6 1.4-.2.5.3.6.9.2 1.4l-3.6 5c-.2.2-.5.3-.8.3zM46.1 23.4c-2.8 0-5-2.2-5-5s2.2-5 5-5 5 2.2 5 5-2.3 5-5 5zm0-8c-1.7 0-3 1.3-3 3s1.3 3 3 3 3-1.3 3-3-1.4-3-3-3z"/><path d="M46.1 28c-.6 0-1-.4-1-1v-8.6c0-.6.4-1 1-1s1 .4 1 1V27c0 .6-.5 1-1 1zM14 44.4c-2.8 0-5-2.2-5-5s2.2-5 5-5 5 2.2 5 5-2.2 5-5 5zm0-8c-1.7 0-3 1.3-3 3s1.3 3 3 3 3-1.3 3-3-1.3-3-3-3z"/><path d="M14 49c-.6 0-1-.4-1-1v-8.6c0-.6.4-1 1-1s1 .4 1 1V48c0 .6-.4 1-1 1zM50 50.4c-2.8 0-5-2.2-5-5s2.2-5 5-5 5 2.2 5 5-2.2 5-5 5zm0-8c-1.7 0-3 1.3-3 3s1.3 3 3 3 3-1.3 3-3-1.3-3-3-3z"/><path d="M50 55c-.6 0-1-.4-1-1v-8.6c0-.6.4-1 1-1s1 .4 1 1V54c0 .6-.4 1-1 1zM43 44.4c-2.8 0-5-2.2-5-5s2.2-5 5-5 5 2.2 5 5-2.2 5-5 5zm0-8c-1.7 0-3 1.3-3 3s1.3 3 3 3 3-1.3 3-3-1.3-3-3-3z"/><path d="M43 49c-.6 0-1-.4-1-1v-8.6c0-.6.4-1 1-1s1 .4 1 1V48c0 .6-.4 1-1 1zM57.1 30.4c-4.3 0-6.5-.5-8.6-1-2.1-.5-4.1-1-8.1-1s-6 .5-8.1 1c-2.1.5-4.3 1-8.6 1s-6.5-.5-8.6-1c-2.1-.5-4.1-1-8.1-1-.6 0-1-.4-1-1s.4-1 1-1c4.3 0 6.5.5 8.6 1 2.1.5 4.1 1 8.1 1s6-.5 8.1-1c2.1-.5 4.3-1 8.6-1s6.5.5 8.6 1c2.1.5 4.1 1 8.1 1 .6 0 1 .4 1 1s-.5 1-1 1z"/><path d="M31.9 54.9h-.2c-.5-.1-.9-.6-.8-1.2.2-1.4.9-2.2 1.6-3.1l.4-.4c.3-.4.7-1 .8-1.5.1-.4 0-.8-.2-1.1-.9-1.4-4.1-2-5.8-2.3-.3-.1-.6-.1-.9-.2-.4-.1-.8-.2-1.2-.2-1.5-.3-3.1-.6-4.6-1.2-1.2-.5-2.5-1.1-3-2.2-.5-.9-.3-1.6-.1-2.1.6-1.2 2.1-1.8 3.3-2.1 1.2-.3 2.5-.5 4.2-.8 1.5-.2 3-.4 4.4-.5.6 0 1.3-.1 2-.2 1.6-.1 3.1-.4 3.3-1.4v-.3c-.6-.9-3.9-1.1-5.3-1.2-.5 0-1-.1-1.3-.1-.7-.1-1.3-.2-1.9-.4H26c-1.9-.4-4-1-4.8-2.2-.3-.5-.1-1.1.3-1.4.5-.3 1.1-.2 1.4.3.3.4 1.5.9 3.6 1.4l.4.1c.6.1 1.2.3 1.8.4.3 0 .7.1 1.2.1 3 .2 5.7.5 6.8 2 .4.6.5 1.2.4 1.9-.6 2.6-3.7 2.9-5.1 3-.7.1-1.3.1-2 .2-1.4.1-2.8.2-4.3.4-1.6.3-2.9.5-4.1.8-1.1.3-1.8.7-1.9 1 0 0 0 .1.1.3.1.2.6.6 2 1.2 1.3.5 2.8.8 4.3 1.1.4.1.8.2 1.2.2.2 0 .5.1.8.2 2.1.4 5.7 1.1 7.1 3.1.5.8.7 1.7.5 2.6-.2.9-.7 1.7-1.2 2.4l-.4.5c-.6.8-1 1.3-1.2 2.2-.1.3-.5.7-1 .7z"/></svg>