<svg xmlns="http://www.w3.org/2000/svg" xml:space="preserve" width="64" height="64" fill="#b8cbd9"><path d="M53 50H11a1 1 0 0 1-1-1V18a1 1 0 0 1 1-1h42a1 1 0 0 1 1 1v31a1 1 0 0 1-1 1zm-41-2h40V19H12v29z"/><path d="M53 26.333H11a1 1 0 1 1 0-2h42a1 1 0 1 1 0 2zM38 42a.999.999 0 0 1-.707-1.707L40.586 37l-3.293-3.293a.999.999 0 1 1 1.414-1.414l4 4a.999.999 0 0 1 0 1.414l-4 4A.997.997 0 0 1 38 42zM26 42a.997.997 0 0 1-.707-.293l-4-4a.999.999 0 0 1 0-1.414l4-4a.999.999 0 1 1 1.414 1.414L23.414 37l3.293 3.293A.999.999 0 0 1 26 42zM49 23a1 1 0 0 1-1-1v-1a1 1 0 1 1 2 0v1a1 1 0 0 1-1 1zM45 23a1 1 0 0 1-1-1v-1a1 1 0 1 1 2 0v1a1 1 0 0 1-1 1zM41 23a1 1 0 0 1-1-1v-1a1 1 0 1 1 2 0v1a1 1 0 0 1-1 1zM29 45a1 1 0 0 1-.919-1.394l6-14a1 1 0 0 1 1.838.788l-6 14A.999.999 0 0 1 29 45z"/></svg>