<svg xmlns="http://www.w3.org/2000/svg" xml:space="preserve" width="64" height="64" fill="#b8cbd9"><path d="M39.878 34.04a6.247 6.247 0 0 1-6.24-6.24c0-3.439 2.8-6.237 6.24-6.237a6.244 6.244 0 0 1 6.237 6.237 6.245 6.245 0 0 1-6.237 6.24zm0-10.477c-2.338 0-4.24 1.9-4.24 4.237a4.245 4.245 0 0 0 4.24 4.24 4.243 4.243 0 0 0 4.237-4.24c0-2.336-1.9-4.237-4.237-4.237zM27.498 43.563a4.815 4.815 0 0 1-4.81-4.81 4.815 4.815 0 0 1 4.81-4.81 4.815 4.815 0 0 1 4.808 4.81 4.814 4.814 0 0 1-4.808 4.81zm0-7.619c-1.549 0-2.81 1.26-2.81 2.81s1.261 2.81 2.81 2.81c1.548 0 2.808-1.26 2.808-2.81s-1.26-2.81-2.808-2.81z"/><path d="M31.307 39.754a1 1 0 0 1-.556-1.832l8.572-5.714a1 1 0 1 1 1.11 1.664l-8.572 5.714a.998.998 0 0 1-.554.168zM27.498 35.944a1 1 0 0 1-.745-1.667l7.226-8.064a1 1 0 0 1 1.49 1.335l-7.226 8.064a1 1 0 0 1-.745.332zM25.254 36.678a.996.996 0 0 1-.522-.147l-9.255-5.678a1 1 0 1 1 1.047-1.705l9.255 5.678a1 1 0 0 1-.525 1.852zM23.688 40.706a.992.992 0 0 1-.521-.147l-7.689-4.706a1 1 0 1 1 1.045-1.706l7.689 4.706a1 1 0 0 1-.524 1.853z"/><path d="M32.5 50.231c-10.201 0-18.5-8.299-18.5-18.5s8.299-18.5 18.5-18.5S51 21.53 51 31.731s-8.299 18.5-18.5 18.5zm0-35c-9.098 0-16.5 7.402-16.5 16.5s7.402 16.5 16.5 16.5S49 40.83 49 31.731s-7.402-16.5-16.5-16.5z"/><path d="M48 50a.997.997 0 0 1-.707-.293l-33-33a.999.999 0 1 1 1.414-1.414l33 33A.999.999 0 0 1 48 50z"/></svg>