<svg xmlns="http://www.w3.org/2000/svg" xml:space="preserve" width="64" height="63.999" fill="#b8cbd9"><path d="M41 20c-2.757 0-5-2.243-5-5s2.243-5 5-5 5 2.243 5 5-2.243 5-5 5zm0-8c-1.654 0-3 1.346-3 3s1.346 3 3 3 3-1.346 3-3-1.346-3-3-3zM46.33 41.499a1.002 1.002 0 0 1-.392-1.921A5.002 5.002 0 0 0 49 34.973V28c0-2.757-2.243-5-5-5h-6c-2.757 0-5 2.243-5 5v6.973a5.007 5.007 0 0 0 3.03 4.592c.507.219.74.808.52 1.315-.22.506-.809.738-1.315.521A7.01 7.01 0 0 1 31 34.973V28c0-3.86 3.14-7 7-7h6c3.86 0 7 3.14 7 7v6.973a6.998 6.998 0 0 1-4.28 6.446.983.983 0 0 1-.39.08z"/><path d="M46 56H36a1 1 0 0 1-1-1V27.333a1 1 0 0 1 2 0V54h8V27.333a1 1 0 0 1 2 0V55a1 1 0 0 1-1 1z"/><path d="M41 56h-.005A1 1 0 0 1 40 54.995l.079-15.791a1 1 0 0 1 1-.995h.005a1 1 0 0 1 .995 1.005L42 55.005A1 1 0 0 1 41 56zM23 18c-2.757 0-5-2.243-5-5s2.243-5 5-5 5 2.243 5 5-2.243 5-5 5zm0-8c-1.654 0-3 1.346-3 3s1.346 3 3 3 3-1.346 3-3-1.346-3-3-3zM28.282 40.52a1.001 1.001 0 0 1-.383-1.925A4.994 4.994 0 0 0 31 33.973V26c0-2.757-2.243-5-5-5h-6c-2.757 0-5 2.243-5 5v7.973a5.013 5.013 0 0 0 3.013 4.585 1 1 0 1 1-.802 1.832A7.011 7.011 0 0 1 13 33.973V26c0-3.86 3.14-7 7-7h6c3.86 0 7 3.14 7 7v7.973a6.992 6.992 0 0 1-4.336 6.471 1.012 1.012 0 0 1-.382.076z"/><path d="M28 56H18a1 1 0 0 1-1-1V25.501a1 1 0 0 1 2 0V54h8V25.501a1 1 0 0 1 2 0V55a1 1 0 0 1-1 1z"/><path d="M23 56a1 1 0 0 1-1-1V38.209a1 1 0 0 1 2 0V55a1 1 0 0 1-1 1z"/></svg>