<svg xmlns="http://www.w3.org/2000/svg" xml:space="preserve" width="64" height="64" fill="#b8cbd9">
  <path d="M54 50H29a1 1 0 0 1 0-2h24V6H30v30a1 1 0 0 1-2 0V5a1 1 0 0 1 1-1h25a1 1 0 0 1 1 1v44a1 1 0 0 1-1 1z"/>
  <path d="M49 14a1 1 0 0 1-1-1v-2a1 1 0 0 1 2 0v2a1 1 0 0 1-1 1zM44 14a1 1 0 0 1-1-1v-2a1 1 0 0 1 2 0v2a1 1 0 0 1-1 1zM39 14a1 1 0 0 1-1-1v-2a1 1 0 0 1 2 0v2a1 1 0 0 1-1 1zM34 14a1 1 0 0 1-1-1v-2a1 1 0 0 1 2 0v2a1 1 0 0 1-1 1zM49 20a1 1 0 0 1-1-1v-2a1 1 0 0 1 2 0v2a1 1 0 0 1-1 1zM44 20a1 1 0 0 1-1-1v-2a1 1 0 0 1 2 0v2a1 1 0 0 1-1 1zM39 20a1 1 0 0 1-1-1v-2a1 1 0 0 1 2 0v2a1 1 0 0 1-1 1zM34 20a1 1 0 0 1-1-1v-2a1 1 0 0 1 2 0v2a1 1 0 0 1-1 1zM49 26a1 1 0 0 1-1-1v-2a1 1 0 0 1 2 0v2a1 1 0 0 1-1 1zM44 26a1 1 0 0 1-1-1v-2a1 1 0 0 1 2 0v2a1 1 0 0 1-1 1zM39 26a1 1 0 0 1-1-1v-2a1 1 0 0 1 2 0v2a1 1 0 0 1-1 1zM34 26a1 1 0 0 1-1-1v-2a1 1 0 0 1 2 0v2a1 1 0 0 1-1 1zM49 32a1 1 0 0 1-1-1v-2a1 1 0 0 1 2 0v2a1 1 0 0 1-1 1zM44 32a1 1 0 0 1-1-1v-2a1 1 0 0 1 2 0v2a1 1 0 0 1-1 1zM39 32a1 1 0 0 1-1-1v-2a1 1 0 0 1 2 0v2a1 1 0 0 1-1 1zM34 32a1 1 0 0 1-1-1v-2a1 1 0 0 1 2 0v2a1 1 0 0 1-1 1zM49 38a1 1 0 0 1-1-1v-2a1 1 0 0 1 2 0v2a1 1 0 0 1-1 1zM44 38a1 1 0 0 1-1-1v-2a1 1 0 0 1 2 0v2a1 1 0 0 1-1 1zM39 38a1 1 0 0 1-1-1v-2a1 1 0 0 1 2 0v2a1 1 0 0 1-1 1zM34 38a1 1 0 0 1-1-1v-2a1 1 0 0 1 2 0v2a1 1 0 0 1-1 1zM49 44a1 1 0 0 1-1-1v-2a1 1 0 0 1 2 0v2a1 1 0 0 1-1 1zM44 44a1 1 0 0 1-1-1v-2a1 1 0 0 1 2 0v2a1 1 0 0 1-1 1zM39 44a1 1 0 0 1-1-1v-2a1 1 0 0 1 2 0v2a1 1 0 0 1-1 1zM34 44a1 1 0 0 1-1-1v-2a1 1 0 0 1 2 0v2a1 1 0 0 1-1 1zM29 60H9a1 1 0 0 1-1-1V42H6a1 1 0 0 1-1-1v-1.942c0-.293.129-.572.352-.762l3.637-3.094V29a1 1 0 0 1 1-1h4a1 1 0 0 1 1 1v1.099l3.363-2.86a1.002 1.002 0 0 1 1.296 0l13 11.058a.999.999 0 0 1 .352.761V41a1 1 0 0 1-1 1h-2v17a1 1 0 0 1-1 1zm-19-2h18V41a1 1 0 0 1 1-1h2v-.479L19 29.313l-4.363 3.711a1.002 1.002 0 0 1-1.648-.762V30h-2v5.665c0 .293-.129.572-.352.762L7 39.521V40h2a1 1 0 0 1 1 1v17z"/>
  <path d="M24 47a1 1 0 0 1-1-1v-2a1 1 0 0 1 2 0v2a1 1 0 0 1-1 1zM17 47a1 1 0 0 1-1-1v-2a1 1 0 0 1 2 0v2a1 1 0 0 1-1 1zM13 47a1 1 0 0 1-1-1v-2a1 1 0 0 1 2 0v2a1 1 0 0 1-1 1zM56 60H29a1 1 0 0 1-1-1V49a1 1 0 0 1 1-1h27a1 1 0 0 1 1 1v10a1 1 0 0 1-1 1zm-26-2h25v-8H30v8z"/>
  <path d="M44 60h-5a1 1 0 0 1-1-1v-6a1 1 0 0 1 1-1h5a1 1 0 0 1 1 1v6a1 1 0 0 1-1 1zm-4-2h3v-4h-3v4zM24 60h-4a1 1 0 0 1-1-1v-6a1 1 0 0 1 1-1h4a1 1 0 0 1 1 1v6a1 1 0 0 1-1 1zm-3-2h2v-4h-2v4zM55.417 55h-8a1 1 0 0 1 0-2h8a1 1 0 0 1 0 2zM35.5 55h-5.833a1 1 0 0 1 0-2H35.5a1 1 0 0 1 0 2z"/>
</svg>
