<svg xmlns="http://www.w3.org/2000/svg" xml:space="preserve" width="64" height="64" fill="#b8cbd9"><path d="M40 19.5c-.55 0-1-.45-1-1V13c0-.55.45-1 1-1s1 .45 1 1v5.5c0 .55-.45 1-1 1zm0-9.5c-.55 0-1-.45-1-1s.45-1 1-1 1 .45 1 1-.45 1-1 1zM57 27c-.55 0-1-.45-1-1s.45-1 1-1 1 .45 1 1-.45 1-1 1zm-4 0h-5.5c-.55 0-1-.45-1-1s.45-1 1-1H53c.55 0 1 .45 1 1s-.45 1-1 1zM55.12 21c-.261 0-.521-.11-.71-.29-.181-.19-.29-.45-.29-.71s.109-.521.29-.71c.37-.37 1.05-.37 1.42 0 .18.189.29.439.29.71 0 .26-.11.52-.29.71-.19.18-.45.29-.71.29zM51.63 21.359c-.2-.51.05-1.09.56-1.29a1.006 1.006 0 0 1 1.301.561c.199.52-.051 1.1-.57 1.3a.99.99 0 0 1-1.291-.571zM50 23a1.01 1.01 0 0 1-.71-.29c-.181-.19-.29-.45-.29-.71s.109-.521.29-.71c.359-.37 1.05-.37 1.42 0 .18.189.29.45.29.71s-.11.52-.29.71c-.19.189-.45.29-.71.29zM46 12c-.26 0-.521-.11-.71-.29-.181-.19-.29-.45-.29-.71s.109-.521.29-.71c.38-.37 1.04-.37 1.42 0 .18.189.29.45.29.71s-.11.52-.29.71c-.19.18-.45.29-.71.29zM44.63 14.43c-.521-.21-.76-.79-.561-1.3.211-.51.79-.76 1.301-.561.51.211.76.79.56 1.301-.16.39-.53.63-.93.63a.99.99 0 0 1-.37-.07zM44 17c-.26 0-.521-.11-.71-.29-.181-.19-.29-.45-.29-.71s.1-.521.29-.71c.38-.37 1.05-.37 1.42 0 .18.189.29.45.29.71s-.11.52-.29.71c-.19.18-.45.29-.71.29zM50.939 16.061a.999.999 0 0 1-.707-1.707l1.061-1.061a.999.999 0 1 1 1.414 1.414l-1.061 1.061a.997.997 0 0 1-.707.293zM47.937 19.063a.999.999 0 0 1-.707-1.707l1.126-1.126a.999.999 0 1 1 1.414 1.414l-1.126 1.126a.996.996 0 0 1-.707.293zM45 22a.999.999 0 0 1-.707-1.707l1.061-1.061a.999.999 0 1 1 1.414 1.414l-1.061 1.061A.997.997 0 0 1 45 22zM40 44c-.55 0-1-.45-1-1s.45-1 1-1 1 .45 1 1-.45 1-1 1zm0-4c-.55 0-1-.45-1-1v-5.5c0-.55.45-1 1-1s1 .45 1 1V39c0 .55-.45 1-1 1zM46 42.12a1.007 1.007 0 0 1-1-1c0-.271.109-.53.3-.71.37-.37 1.04-.37 1.41 0 .189.19.29.44.29.71 0 .26-.101.52-.29.71-.19.18-.45.29-.71.29zM44.069 38.93c-.199-.52.051-1.1.57-1.3.51-.2 1.09.05 1.29.56a1 1 0 0 1-.57 1.301.999.999 0 0 1-1.29-.561zM44 37c-.26 0-.521-.11-.71-.29-.181-.19-.29-.45-.29-.71s.109-.521.29-.71c.37-.37 1.05-.37 1.42 0 .18.189.29.45.29.71s-.11.52-.29.71c-.19.18-.45.29-.71.29zM55 33c-.271 0-.521-.11-.71-.29-.181-.19-.29-.45-.29-.71s.109-.521.29-.71c.359-.37 1.05-.37 1.42 0 .18.189.29.45.29.71s-.11.52-.29.71c-.19.18-.45.29-.71.29zM52.13 31.93c-.521-.21-.76-.79-.561-1.3a.995.995 0 0 1 1.301-.561c.51.211.76.79.56 1.301-.16.39-.531.63-.93.63a.99.99 0 0 1-.37-.07zM50 31c-.26 0-.521-.11-.71-.29-.181-.19-.29-.45-.29-.71 0-.271.109-.53.29-.71.37-.37 1.05-.37 1.42 0 .18.189.29.439.29.71 0 .26-.11.52-.29.71-.19.189-.45.29-.71.29zM52 39a.997.997 0 0 1-.707-.293l-1.061-1.061a.999.999 0 1 1 1.414-1.414l1.061 1.061A.999.999 0 0 1 52 39zM49.063 36.063a.997.997 0 0 1-.707-.293l-1.126-1.126a.999.999 0 1 1 1.414-1.414l1.126 1.126a.999.999 0 0 1-.707 1.707zM46.061 33.061a.997.997 0 0 1-.707-.293l-1.061-1.061a.999.999 0 1 1 1.414-1.414l1.061 1.061a.999.999 0 0 1-.707 1.707zM32.5 27H27c-.55 0-1-.45-1-1s.45-1 1-1h5.5c.55 0 1 .45 1 1s-.45 1-1 1zM23 27c-.55 0-1-.45-1-1s.45-1 1-1 1 .45 1 1-.45 1-1 1zM24.88 33c-.26 0-.52-.101-.71-.29-.18-.19-.29-.45-.29-.71s.11-.521.29-.7c.37-.37 1.05-.38 1.42-.01.18.189.29.45.29.71 0 .27-.11.52-.29.71-.19.189-.45.29-.71.29zM26.51 31.359c-.2-.51.05-1.09.57-1.29a.994.994 0 0 1 1.29.57c.2.51-.05 1.09-.57 1.29-.11.05-.24.07-.36.07a.987.987 0 0 1-.93-.64zM30 31c-.26 0-.52-.101-.71-.29-.18-.19-.29-.45-.29-.71 0-.271.11-.521.29-.71.37-.37 1.05-.37 1.42 0 .18.189.29.439.29.71 0 .26-.11.52-.29.71-.19.189-.45.29-.71.29zM34 42c-.26 0-.52-.11-.71-.29-.18-.19-.29-.45-.29-.71s.11-.521.29-.71c.38-.37 1.05-.37 1.42 0 .18.189.29.439.29.71 0 .26-.11.52-.29.71-.19.18-.45.29-.71.29zM34.63 39.43c-.51-.21-.76-.79-.56-1.3.21-.521.79-.76 1.3-.561.51.211.76.79.56 1.301-.16.39-.53.63-.93.63a.99.99 0 0 1-.37-.07zM36 37c-.26 0-.52-.11-.71-.29-.18-.19-.29-.45-.29-.71s.11-.521.29-.71c.38-.37 1.05-.37 1.42 0 .18.189.29.45.29.71s-.11.52-.29.71c-.19.18-.45.29-.71.29zM28 39a.999.999 0 0 1-.707-1.707l1.061-1.061a.999.999 0 1 1 1.414 1.414l-1.061 1.061A.997.997 0 0 1 28 39zM30.937 36.063a.999.999 0 0 1-.707-1.707l1.126-1.126a.999.999 0 1 1 1.414 1.414l-1.126 1.126a.997.997 0 0 1-.707.293zM33.939 33.061a.999.999 0 0 1-.707-1.707l1.061-1.061a.999.999 0 1 1 1.414 1.414l-1.061 1.061a.997.997 0 0 1-.707.293zM34 11.88c-.26 0-.52-.11-.71-.29a.99.99 0 0 1-.29-.71c0-.26.1-.521.29-.71.37-.37 1.04-.37 1.42 0 .18.189.29.45.29.71a1.009 1.009 0 0 1-1 1zM34.07 13.8c-.2-.51.05-1.09.57-1.29.51-.2 1.09.05 1.29.57.2.51-.05 1.09-.57 1.29a.989.989 0 0 1-1.29-.57zM36 17c-.26 0-.52-.11-.71-.29-.18-.19-.29-.45-.29-.71s.11-.521.29-.71c.38-.37 1.04-.37 1.42 0 .18.189.29.45.29.71s-.11.52-.29.71c-.19.18-.45.29-.71.29zM25 21c-.26 0-.52-.11-.71-.29-.18-.19-.29-.45-.29-.71s.11-.521.29-.71c.38-.37 1.05-.37 1.42 0 .18.189.29.45.29.71s-.11.52-.29.71c-.19.18-.45.29-.71.29zM27.13 21.93c-.51-.21-.76-.79-.56-1.3.21-.521.79-.76 1.3-.561.51.211.76.79.56 1.301-.16.39-.53.63-.93.63a.99.99 0 0 1-.37-.07zM30 23c-.26 0-.52-.101-.71-.29-.18-.19-.29-.45-.29-.71s.11-.521.29-.71c.37-.37 1.05-.37 1.42 0 .18.189.29.45.29.71s-.11.52-.29.71c-.19.189-.45.29-.71.29zM29.061 16.061a.997.997 0 0 1-.707-.293l-1.061-1.061a.999.999 0 1 1 1.414-1.414l1.061 1.061a.999.999 0 0 1-.707 1.707zM32.063 19.063a.997.997 0 0 1-.707-.293l-1.126-1.126a.999.999 0 1 1 1.414-1.414l1.126 1.126a.999.999 0 0 1-.707 1.707zM35 22a.997.997 0 0 1-.707-.293l-1.061-1.061a.999.999 0 1 1 1.414-1.414l1.061 1.061A.999.999 0 0 1 35 22zM16 40.458a1 1 0 0 1-1-1V34a1 1 0 1 1 2 0v5.458a1 1 0 0 1-1 1zM16 55a1 1 0 0 1-1-1v-5.458a1 1 0 1 1 2 0V54a1 1 0 0 1-1 1zM11.455 45H6a1 1 0 1 1 0-2h5.455a1 1 0 1 1 0 2zM26 45h-5.455a1 1 0 1 1 0-2H26a1 1 0 1 1 0 2zM11.467 40.451c-.256 0-.512-.098-.708-.293L8.19 37.586a1 1 0 0 1 1.415-1.414l2.569 2.572a1 1 0 0 1-.707 1.707zM23.038 52.023c-.256 0-.512-.098-.708-.293l-2.569-2.572a1 1 0 0 1 1.415-1.414l2.569 2.572a1 1 0 0 1-.707 1.707zM8.896 52.022a.999.999 0 0 1-.708-1.707l2.57-2.573a1 1 0 0 1 1.415 1.414l-2.57 2.573a.993.993 0 0 1-.707.293zM20.469 40.454a1.001 1.001 0 0 1-.708-1.707l2.57-2.574a1 1 0 1 1 1.415 1.414l-2.57 2.574a.996.996 0 0 1-.707.293z"/></svg>