<svg xmlns="http://www.w3.org/2000/svg" xml:space="preserve" width="64" height="64" fill="#b8cbd9"><path d="M40 57a1 1 0 0 1-1-1V21a1 1 0 1 1 2 0v35a1 1 0 0 1-1 1z"/><path d="M51 51H29a1.001 1.001 0 0 1-.96-1.278l1.667-5.738a1 1 0 1 1 1.92.557L30.332 49h19.336l-6.6-22.721a1 1 0 0 1 .96-1.278h2.062l-6.088-14.428L33.911 25h2.061a1 1 0 0 1 .96 1.278l-1.307 4.5a1 1 0 1 1-1.92-.557L34.64 27h-2.236a1 1 0 0 1-.921-1.388l7.599-18a1 1 0 0 1 1.841-.001l7.595 18A.998.998 0 0 1 47.597 27H45.36l6.6 22.721A1 1 0 0 1 51 51z"/><path d="M28.916 45H14.418C9.854 45 6 41.271 6 36.858v-1.786c0-3.009 1.862-5.847 4.698-7.256v-1.671c0-4.491 3.701-8.144 8.251-8.144h5.436c4.55 0 8.251 3.653 8.251 8.144v1.675C35.308 29.176 37 31.952 37 35.072v1.786C37 41.348 33.374 45 28.916 45zm-9.967-25c-3.447 0-6.251 2.756-6.251 6.144v2.318c0 .408-.248.775-.626.928C9.637 30.371 8 32.654 8 35.072v1.786C8 40.188 10.939 43 14.418 43h14.498C32.327 43 35 40.302 35 36.858v-1.786c0-2.537-1.467-4.767-3.738-5.682a1.002 1.002 0 0 1-.626-.928v-2.318c0-3.388-2.804-6.144-6.251-6.144h-5.436z"/><path d="M22 57a1 1 0 0 1-1-1V25a1 1 0 1 1 2 0v31a1 1 0 0 1-1 1z"/><path d="M21.665 32.499a.997.997 0 0 1-.707-.293l-4.428-4.431a1 1 0 1 1 1.414-1.415l4.428 4.431a1 1 0 0 1-.707 1.708zM22.16 39.79a1 1 0 0 1-.707-1.707l7.291-7.296a1 1 0 1 1 1.414 1.415l-7.291 7.296a1 1 0 0 1-.707.292z"/></svg>