<svg xmlns="http://www.w3.org/2000/svg" xml:space="preserve" style="enable-background:new 0 0 64 64" viewBox="0 0 64 64"><path d="M28.1 55c-.6 0-1-.4-1-1V28c0-.6.4-1 1-1s1 .4 1 1v26c0 .6-.5 1-1 1zM50 26.6c-2.1 0-3.2-.6-4.1-1.1-.9-.5-1.6-.9-3.2-.9-.9 0-1.5.1-2.2.4-.5.2-1.1 0-1.3-.6-.2-.5 0-1.1.6-1.3.9-.4 1.8-.5 2.9-.5 2.1 0 3.2.6 4.1 1.1.9.5 1.6.9 3.2.9.6 0 1 .4 1 1s-.4 1-1 1zM18.1 55c-.6 0-1-.4-1-1V10c0-.6.4-1 1-1s1 .4 1 1v44c0 .6-.5 1-1 1z"/><path d="M40 28.6c-2.1 0-3.2-.6-4.1-1.1-.9-.5-1.6-.9-3.2-.9s-2.3.4-3.2.9c-1 .5-2.1 1.1-4.1 1.1-2.1 0-3.2-.6-4.1-1.1-.9-.5-1.6-.9-3.2-.9-.6 0-1-.4-1-1v-14c0-.6.4-1 1-1 2.1 0 3.2.6 4.1 1.1.9.5 1.6.9 3.2.9s2.3-.4 3.2-.9c1-.5 2.1-1.1 4.1-1.1 2.1 0 3.2.6 4.1 1.1.9.5 1.6.9 3.2.9.6 0 1 .4 1 1v14c0 .5-.4 1-1 1zm-20.9-4c1.5.2 2.3.6 3.1 1.1.9.5 1.6.9 3.2.9s2.3-.4 3.2-.9c1-.5 2.1-1.1 4.1-1.1s3.2.6 4.1 1.1c.7.4 1.2.7 2.2.8v-12c-1.5-.2-2.3-.6-3.1-1.1-.9-.5-1.6-.9-3.2-.9s-2.3.4-3.2.9c-1 .5-2.1 1.1-4.1 1.1-2.1 0-3.2-.6-4.1-1.1-.7-.4-1.2-.7-2.2-.8v12z"/><path d="M50 33.6c-2.1 0-3.2-.6-4.1-1.1-.9-.5-1.6-.9-3.2-.9s-2.3.4-3.2.9c-1 .5-2.1 1.1-4.1 1.1-2.1 0-3.2-.6-4.1-1.1-.9-.5-1.6-.9-3.2-.9-.6 0-1-.4-1-1V27c0-.4.2-.8.6-.9.3-.1.6-.3.9-.4 1-.5 2.1-1.1 4.1-1.1s3.2.6 4.1 1.1c.7.4 1.2.7 2.2.8v-9.4c0-.4.2-.8.6-.9.9-.4 1.9-.6 3.1-.6 2.1 0 3.2.6 4.1 1.1.9.5 1.6.9 3.2.9.6 0 1 .4 1 1v14c0 .5-.4 1-1 1zm-20.9-4c1.5.2 2.3.6 3.1 1.1.9.5 1.6.9 3.2.9s2.3-.4 3.2-.9c1-.5 2.1-1.1 4.1-1.1 2.1 0 3.2.6 4.1 1.1.7.4 1.2.7 2.2.8v-12c-1.5-.2-2.3-.6-3.1-1.1-.9-.5-1.6-.9-3.2-.9-.7 0-1.3.1-1.7.2v9.8c0 .6-.4 1-1 1-2.1 0-3.2-.6-4.1-1.1-.9-.5-1.6-.9-3.2-.9s-2.3.4-3.2.9c-.1.1-.3.2-.4.2v2zM28.6 23c-1.9 0-3.5-1.6-3.5-3.5s1.6-3.5 3.5-3.5 3.5 1.6 3.5 3.5-1.6 3.5-3.5 3.5zm0-5c-.8 0-1.5.7-1.5 1.5s.7 1.5 1.5 1.5 1.5-.7 1.5-1.5-.7-1.5-1.5-1.5z"/></svg>