<svg xmlns="http://www.w3.org/2000/svg" xml:space="preserve" width="64" height="64" fill="#b8cbd9"><path d="M19.646 38.045c-.282 0-.567-.037-.854-.13-.916-.298-1.485-1.025-1.987-1.667-.269-.344-.521-.668-.77-.849-.255-.186-.646-.329-1.061-.48-.761-.279-1.623-.596-2.182-1.365-.555-.762-.591-1.676-.622-2.482-.018-.444-.034-.864-.134-1.171-.092-.281-.317-.616-.558-.972-.459-.68-.979-1.45-.979-2.429s.52-1.749.979-2.429c.24-.355.466-.69.558-.972.1-.307.116-.727.134-1.171.031-.807.067-1.721.622-2.482.561-.77 1.422-1.086 2.183-1.365.414-.152.805-.296 1.06-.48.248-.181.501-.505.77-.849.502-.642 1.071-1.369 1.987-1.667.883-.285 1.755-.041 2.526.176.436.123.848.239 1.183.239s.747-.116 1.183-.239c.772-.217 1.645-.461 2.526-.176.916.298 1.485 1.025 1.987 1.667.269.344.521.668.77.849.255.186.646.329 1.061.48.761.279 1.623.596 2.182 1.365.555.762.591 1.676.622 2.482.018.444.034.864.134 1.171.092.281.317.616.558.972.164.243.329.489.471.739a.998.998 0 0 1-.373 1.363.997.997 0 0 1-1.363-.373c-.118-.207-.256-.409-.393-.61-.307-.454-.623-.924-.802-1.473-.185-.57-.209-1.177-.229-1.711-.021-.547-.044-1.113-.241-1.385-.202-.277-.736-.474-1.253-.663-.525-.192-1.068-.392-1.549-.741-.474-.345-.827-.797-1.169-1.233-.341-.437-.694-.889-1.028-.997-.312-.102-.846.052-1.366.199-.526.147-1.118.314-1.729.314s-1.203-.167-1.726-.313c-.521-.147-1.056-.3-1.366-.199-.334.108-.688.561-1.028.997-.342.437-.695.889-1.17 1.233-.479.349-1.021.548-1.546.74-.518.19-1.053.387-1.255.665-.197.271-.22.837-.241 1.384-.021.534-.045 1.141-.229 1.71-.179.55-.495 1.02-.802 1.474-.327.484-.637.943-.637 1.309s.31.825.637 1.31c.307.454.623.924.802 1.474.185.569.209 1.176.229 1.71.021.547.044 1.113.241 1.385.202.277.736.474 1.253.663.525.192 1.068.392 1.549.741.474.345.827.797 1.169 1.233.341.437.694.889 1.028.997.311.1.845-.052 1.366-.199.522-.146 1.114-.313 1.726-.313s1.203.167 1.726.313c.521.147 1.056.3 1.366.199.334-.108.688-.561 1.029-.997.214-.274.583-.465.937-.426l.366.041a1 1 0 0 1-.025 1.99c-.45.547-.96 1.057-1.688 1.294-.882.286-1.755.041-2.527-.176-.437-.123-.849-.239-1.184-.239s-.747.116-1.183.239c-.52.147-1.087.306-1.671.306z"/><path d="M41 50c-7.72 0-14-6.28-14-14s6.28-14 14-14c.266 0 .52.105.707.293l13 13A.996.996 0 0 1 55 36c0 7.72-6.28 14-14 14zm-.407-25.993C34.164 24.223 29 29.52 29 36c0 6.617 5.383 12 12 12 6.48 0 11.777-5.164 11.993-11.593l-12.4-12.4z"/><path d="M54 37c-7.72 0-14-6.28-14-14a1 1 0 1 1 2 0c0 6.617 5.383 12 12 12a1 1 0 1 1 0 2z"/><path d="M41 46c-5.514 0-10-4.486-10-10s4.486-10 10-10a1 1 0 1 1 0 2c-4.411 0-8 3.589-8 8s3.589 8 8 8 8-3.589 8-8a1 1 0 1 1 2 0c0 5.514-4.486 10-10 10z"/></svg>