<svg xmlns="http://www.w3.org/2000/svg" xml:space="preserve" width="64" height="64" fill="#b8cbd9"><path d="M42.083 41H23.038a1 1 0 1 1 0-2h19.045a1 1 0 1 1 0 2z"/><path d="M12.129 41H7.083a1 1 0 0 1-1-1v-7c0-.265.105-.52.293-.707l3-3a.99.99 0 0 1 .441-.257l10.84-2.992C21.871 25.228 29.959 20 38.126 20c7.977 0 14.177 5.01 15.418 6.088l4.711.931a1 1 0 0 1 .806.981v11.998a.996.996 0 0 1-1 1h-.002l-5.379-.01a1 1 0 0 1 .002-2h.002l4.377.008V28.822l-4.172-.825a1.001 1.001 0 0 1-.484-.247c-.063-.057-6.331-5.75-14.279-5.75-8.051 0-16.39 5.728-16.473 5.786a1.002 1.002 0 0 1-.305.143l-10.745 2.965-2.521 2.521V39h4.046a1 1 0 0 1 .001 2z"/><path d="M17.746 46a5.506 5.506 0 0 1-5.499-5.5c0-3.032 2.467-5.5 5.499-5.5a5.507 5.507 0 0 1 5.501 5.5c0 3.033-2.468 5.5-5.501 5.5zm0-9a3.503 3.503 0 0 0-3.499 3.5c0 1.93 1.569 3.5 3.499 3.5a3.504 3.504 0 0 0 3.501-3.5c0-1.93-1.57-3.5-3.501-3.5zM47.472 46a5.506 5.506 0 0 1-5.5-5.5c0-3.032 2.468-5.5 5.5-5.5s5.5 2.467 5.5 5.5-2.468 5.5-5.5 5.5zm0-9c-1.93 0-3.5 1.57-3.5 3.5s1.57 3.5 3.5 3.5 3.5-1.57 3.5-3.5-1.571-3.5-3.5-3.5zM38.131 40.92a1 1 0 0 1-1-1V21.906a1 1 0 1 1 2 0V39.92a1 1 0 0 1-1 1zM35.083 32h-3a1 1 0 1 1 0-2h3a1 1 0 1 1 0 2zM58.083 31h-4a1 1 0 1 1 0-2h4a1 1 0 1 1 0 2z"/><path d="M53.083 28h-32a1 1 0 1 1 0-2h32a1 1 0 1 1 0 2z"/></svg>