<svg xmlns="http://www.w3.org/2000/svg" xml:space="preserve" style="enable-background:new 0 0 64 64" viewBox="0 0 64 64"><path d="M24.1 41.8c-2.5 0-4.5-2-4.5-4.5s2-4.5 4.5-4.5 4.5 2 4.5 4.5-2 4.5-4.5 4.5zm0-7c-1.4 0-2.5 1.1-2.5 2.5s1.1 2.5 2.5 2.5 2.5-1.1 2.5-2.5-1.1-2.5-2.5-2.5zM37.5 32.9c-1.6 0-2.6-1.2-2.6-3.1 0-1.7 1.4-3.1 3.1-3.1 1.6 0 2.6 1.2 2.6 3.1-.1 1.7-1.4 3.1-3.1 3.1zm.4-4.2c-.6 0-1.1.5-1.1 1.1 0 1.1.5 1.1.6 1.1.6 0 1.1-.5 1.1-1.1 0-1.1-.4-1.1-.6-1.1zM34.3 25.7c-1.7 0-3.1-1.4-3.1-3.1 0-1.7 1.4-3.1 3.1-3.1 1.7 0 3.1 1.4 3.1 3.1 0 1.7-1.4 3.1-3.1 3.1zm0-4.1c-.6 0-1.1.5-1.1 1.1s.5 1.1 1.1 1.1c.6 0 1.1-.5 1.1-1.1s-.5-1.1-1.1-1.1zM27.2 22.1c-1.7 0-3.1-1.4-3.1-3.1 0-1.7 1.4-3.1 3.1-3.1 1.7 0 3.1 1.4 3.1 3.1-.1 1.8-1.4 3.1-3.1 3.1zm0-4.1c-.6 0-1.1.5-1.1 1.1s.5 1.1 1.1 1.1 1.1-.5 1.1-1.1-.5-1.1-1.1-1.1zM19.1 22.1c-1.7 0-3.1-1.4-3.1-3.1 0-1.7 1.4-3.1 3.1-3.1 1.7 0 3.1 1.4 3.1 3.1 0 1.8-1.4 3.1-3.1 3.1zm0-4.1c-.6 0-1.1.5-1.1 1.1s.5 1.1 1.1 1.1 1.1-.5 1.1-1.1-.5-1.1-1.1-1.1zM15.5 29.3c-1.7 0-3.1-1.4-3.1-3.1 0-1.7 1.4-3.1 3.1-3.1 1.7 0 3.1 1.4 3.1 3.1 0 1.7-1.4 3.1-3.1 3.1zm0-4.1c-.6 0-1.1.5-1.1 1.1s.5 1.1 1.1 1.1 1.1-.5 1.1-1.1-.5-1.1-1.1-1.1zM36.1 51.5l-3.5-3.8.4-.6c.5-.7 2.9-4.5 5.4-7.1 2.6-2.7 17.1-16 20.2-16 .5 0 .8.2 1 .4s.4.5.4 1c0 3.1-13.3 17.6-16 20.2-2.9 2.8-7 5.4-7.2 5.5l-.7.4zm-1-4 1.4 1.5c1.3-.8 4.1-2.8 6.2-4.8 3.9-3.8 12.6-13.9 14.8-17.7-3.8 2.2-13.8 10.9-17.7 14.8-2 2.1-3.9 4.9-4.7 6.2z"/><path d="M28 56h-1v-1c0-3.3.6-5.5 2-6.8 1.4-1.4 3.2-1.3 4.5-1.2h.6v2h-.7c-1 0-2.2-.1-3 .7-.8.8-1.2 2.2-1.3 4.3 5.1-.1 6.2-1.2 7-4.2l1.9.5c-1.3 4.8-4.2 5.7-10 5.7zM39.435 41.044l1.414-1.415 3.535 3.536-1.414 1.414z"/><path d="M26.6 47.4c-4.5 0-10.3-4.6-11.7-5.9-8-7.6-9.2-19.3-2.8-26 6.3-6.6 18-5.7 26.1 2 4.3 4 6.8 9.7 6.8 15.5 0 1-.2 2.5-.7 3.9l-.1.3-.2.2c-1.8 1.6-3.3 3.1-4.2 4-.4.4-.8.9-1.3 1.4l-.5.6-.7-.3c-.3-.1-.6-.3-.8-.5-.7-.5-1.2-1.2-1.6-2-.9-1.5-1.2-1.7-2.1-1.3-.9.5-1.1 1.4-1.3 2.9-.2 1-.3 2.1-.9 3-.8 1.2-1.9 1.9-3.4 2-.2.2-.4.2-.6.2zM23.1 13c-3.7 0-7.1 1.3-9.5 3.8-5.7 6-4.5 16.4 2.7 23.2 2.2 2.1 7.5 5.7 10.7 5.4.9-.1 1.5-.5 1.9-1.2.4-.5.5-1.4.6-2.2.2-1.5.5-3.4 2.4-4.4 2.6-1.4 3.9.7 4.7 2 .3.5.6 1 .9 1.3.3-.3.6-.6.8-.9.9-1 2.4-2.3 4.1-3.9.4-1.4.5-2.5.5-3.1 0-5.3-2.2-10.5-6.1-14.1-4-3.9-9.1-5.9-13.7-5.9zM27 56h-2c-.6 0-1-.4-1-1s.4-1 1-1h2c.6 0 1 .4 1 1s-.4 1-1 1z"/></svg>